<svg width="151" height="30" viewBox="0 0 151 30" fill="none" xmlns="http://www.w3.org/2000/svg">
<path d="M100.346 21.8535C107.18 21.8535 110.807 17.4206 111.689 11.8197C111.701 11.794 111.819 10.7695 111.83 10.6591L113.128 0H103.022C95.7159 0 91.5515 6.03495 91.5515 12.802C91.5515 18.5776 95.0778 21.8535 100.346 21.8535ZM103.555 4.14592C105.668 4.14592 107.379 5.88228 107.379 8.02514C107.379 10.168 105.668 11.9044 103.555 11.9044C101.445 11.9044 99.7318 10.168 99.7318 8.02514C99.7318 5.88228 101.445 4.14592 103.555 4.14592ZM147.176 14.095C149.287 14.095 151 15.8314 151 17.9742C151 20.1171 149.287 21.8535 147.176 21.8535C145.064 21.8535 143.353 20.1171 143.353 17.9742C143.353 15.8314 145.064 14.095 147.176 14.095ZM8.11321 21.8535C13.1697 21.8535 16.357 19.1386 16.357 15C16.357 11.6818 14.1505 10.1606 10.9179 8.53464C9.01246 7.57633 7.9863 6.89761 7.9863 6.20785C7.9863 5.38749 8.7949 4.89454 9.64339 4.91478C10.6206 4.93501 12.0656 5.47394 13.2114 7.06867L17.0785 3.36235C15.2093 1.07787 12.4046 0 9.60169 0C5.3103 0 1.91091 2.80135 1.91091 7.02636C1.91091 10.1294 3.83451 11.8363 6.96739 13.4476C9.35512 14.6781 10.1964 15.0441 10.1964 15.8185C10.1964 16.5524 9.38776 16.9828 8.28363 16.9828C6.67006 16.9828 4.80085 15.9914 3.568 14.4831L0 18.2336C1.8257 20.5604 5.13988 21.8535 8.11321 21.8535ZM20.5287 0.388105L16.919 30H23.2917L24.4375 20.4739L24.608 20.4316C25.8825 21.4231 27.4979 21.8535 29.4505 21.8535C35.0164 21.8535 39.393 16.1202 39.393 8.62109C39.393 3.83691 37.1413 0 32.8082 0C30.1739 0 28.0926 1.37952 26.5624 3.6217L26.5207 3.53525L26.9014 0.388105H20.5287ZM27.7517 16.1202C26.6476 16.1202 25.5852 15.6898 24.947 14.8271L24.9905 14.2679C25.4111 8.71306 28.3464 5.73329 30.6833 5.73329C32.1283 5.73329 33.0203 7.24157 33.0203 9.26671C33.0203 12.7578 31.1928 16.1202 27.7517 16.1202ZM47.6096 21.8535C49.9466 21.8535 52.0279 20.5604 53.5563 18.3182L53.685 18.3624L53.3024 21.4654H59.7169L62.2659 0.388105H55.8515L55.6811 1.85408H55.5542C54.4501 0.689761 52.8347 0 50.6681 0C45.2291 0 40.8543 5.73329 40.8543 13.2324C40.8543 18.103 43.1478 21.8535 47.6096 21.8535ZM49.6492 16.1202C48.2043 16.1202 47.2687 14.7848 47.2687 12.7578C47.2687 9.61251 48.9693 5.7756 51.7723 5.7756C53.0903 5.7756 54.2796 6.29246 55.2133 7.28387L55.1281 7.88719C54.383 13.1864 51.8575 16.1202 49.6492 16.1202ZM65.1033 0.395463L62.5542 21.4654H68.9269L69.8606 13.363C70.4408 8.34335 73.1748 6.0423 76.2334 7.16248L77.1272 0C74.8319 0 72.7923 1.12017 71.1787 3.2759H71.0935L71.476 0.395463H65.1033ZM79.6618 0.395463L77.1127 21.4654H83.4854L84.4209 13.363C84.9993 8.34335 87.7351 6.0423 90.7936 7.16248L91.6856 0C89.3922 0 87.3525 1.12017 85.7371 3.2759H85.6519L86.0345 0.395463H79.6618ZM119.339 21.8535C121.76 21.8535 124.43 20.5162 125.917 18.0166H126.002C126.597 20.2587 128.381 21.8535 131.688 21.8535C137.076 21.8535 142.288 18.6125 143.648 9.0515C144.065 6.11404 144.114 3.103 143.648 0.388105H137.247C137.587 3.14715 137.575 5.25874 137.247 7.75843C136.393 14.2643 134.11 16.0779 132.75 16.0779C131.561 16.0779 131.187 14.9577 131.561 11.897L132.962 0.388105H126.809L125.705 9.35316C125.067 14.5236 122.815 16.0779 121.633 16.0779C120.273 16.0779 119.969 14.5254 120.358 11.6376L121.881 0.388105H115.601L113.815 13.1459C113.099 18.2685 114.921 21.8535 119.339 21.8535Z" fill="#46A3F3"/>
</svg>
