<svg height="50" viewBox="0 0 518 50" width="518" xmlns="http://www.w3.org/2000/svg" xmlns:xlink="http://www.w3.org/1999/xlink"><mask id="a" fill="#fff"><path d="m.04687059 14.2781525v-13.92159721h12.42482571v13.92159721z" fill="#fff" fill-rule="evenodd"/></mask><g fill="none" fill-rule="evenodd" transform="translate(1 1)"><path d="m51.4927624 4.66407529v1.99115295l2.7681882.24282352.8256.67990589v26.75915295l-.8256.6799059-2.7681882.2428235v1.9911529h11.8012235v-1.9911529l-3.0110118-.2428235-.8256-.6799059v-27.43905884h15.7349647v27.43905884l-.8256.6799059-3.0110117.2428235v1.9911529h11.8012235v-1.9911529l-2.7681882-.2428235-.8256-.6799059v-26.75915295l.8256-.67990589 2.7681882-.24282352v-1.99115295zm33.6062117 43.17402351h11.4612706v-1.7483294l-3.1081412-.2428235-.8256-.7770353v-8.1103059c2.4768.4370824 3.9823059.4370824 4.5650824.4370824 3.6909181 0 6.3619761-1.2621177 8.2560001-3.1081412 1.748329-1.6997647 3.593788-4.8079059 3.593788-9.5186824 0-7.7703529-4.516518-11.3155764-9.2758587-11.3155764-1.8454588 0-3.9337412.4370823-7.1390118 2.8653176v-2.6710588h-1.8454588l-5.6820706 1.7483294v1.5055059h3.4480941v28.1675294l-.7770353.7770353-2.6710588.2428235zm7.5275294-29.7216c1.165553-.6799059 3.1567059-1.5540706 5.0507294-1.5540706 4.7593411 0 6.9933181 4.0794353 6.9933181 8.7902118 0 5.2935529-2.768189 9.9072-8.4502592 9.9072-.7284706 0-1.8940236-.0971294-3.5937883-.8256zm39.2397175 13.9866353c-3.496659 2.3796706-6.022023 2.816753-7.624659 2.816753-5.536376 0-8.15887-5.1478589-8.15887-10.1014589v-.3399529h15.734964c.048565-.4850824.048565-.9227294.048565-1.3598118 0-7.8189176-4.905035-9.6643764-8.693082-9.6643764-4.030871 0-6.556235 1.7968941-7.867483 3.1567058-2.136847 2.1854118-3.399529 5.4392471-3.399529 9.1301647 0 6.7019295 3.642353 11.9469177 11.024188 11.9469177 3.156706 0 6.361977-1.1169882 8.935906-2.9138824zm-15.540706-9.6638117c.339953-3.2058353 2.088283-6.8476236 6.264847-6.8476236 2.865318 0 3.982306 1.8934588 4.273694 2.4762353.388518.7284706.679906 2.1854118.679906 3.1567059v1.2146824zm37.491389 10.2465882c-1.456942.9712941-3.690918 2.0882823-6.216283 2.0882823-8.061741 0-8.15887-8.0131764-8.15887-9.6158117 0-2.7190588.679905-5.6335059 2.282541-7.5275294 1.602635-1.8940236 3.545223-2.2339765 4.710776-2.2339765s1.942588.3399529 2.428236.6313412v3.9823059c.8256.5342117 1.748329.6799058 2.282541.6799058 1.55407 0 2.622494-1.0684235 2.622494-2.6710588 0-1.9425882-1.74833-4.5650823-7.041883-4.5650823-7.139011 0-11.752658 4.5650823-11.752658 12.1411764 0 7.6732236 4.613647 12.0926118 10.975623 12.0926118 1.6512 0 4.176565-.2913882 7.867483-2.4768zm20.931388 0c-1.456941.9712941-3.690918 2.0882823-6.216283 2.0882823-8.061741 0-8.15887-8.0131764-8.15887-9.6158117 0-2.7190588.679906-5.6335059 2.282541-7.5275294 1.602635-1.8940236 3.545224-2.2339765 4.710776-2.2339765 1.165553 0 1.942589.3399529 2.428236.6313412v3.9823059c.8256.5342117 1.748329.6799058 2.282541.6799058 1.554071 0 2.622494-1.0684235 2.622494-2.6710588 0-1.9425882-1.748329-4.5650823-7.041882-4.5650823-7.139012 0-11.752659 4.5650823-11.752659 12.1411764 0 7.6732236 4.613647 12.0926118 10.975623 12.0926118 1.6512 0 4.176565-.2913882 7.867483-2.4768zm17.191906 4.5650823h6.799058v-1.7483294h-2.574494l-.825035-1.0198588v-14.0837647c0-1.0198588-.048565-3.4966588-1.554071-5.0992941-1.699764-1.7968941-4.662211-1.8454588-5.7792-1.8454588-7.090447 0-9.712941 3.1081411-9.712941 5.6820705 0 1.165553.92273 1.2626824 1.505506 1.2626824h3.350965v-4.0794353c1.214118-.4370823 2.573929-.7279059 3.836612-.7279059 4.516517 0 4.273694 3.4960941 4.273694 5.3901177v1.5540706c-5.196424 1.2626823-7.52753 2.0397176-9.275859 2.7196235-2.282541.9227294-4.905035 2.4282353-4.905035 6.0705882 0 3.0595765 1.845458 6.3619765 6.216282 6.3619765 1.845459 0 4.225129-.5827765 7.964612-3.2538353zm-.679906-4.4679529c-3.108141 1.7974588-4.759341 2.1854118-6.022024 2.1854118-2.962447 0-3.885176-2.2339765-3.885176-4.0308706 0-2.6710588 1.845459-3.7394824 3.398964-4.467953 1.70033-.7770353 4.419953-1.6512 6.508236-2.2339764zm19.667576-18.8916706v1.7488941l2.622494.2422589.825036.7770352v17.8232471l-.825036.7770353-2.622494.2428235v1.7483294h12.286871c1.991153 0 4.419388-.1942588 6.50767-1.6026353 2.185412-1.4569411 2.768189-3.4966588 2.768189-5.0507294 0-4.0794353-3.253836-5.4878117-5.925459-5.7306353v-.0971294c2.671623-.6799059 4.662776-2.7681882 4.662776-5.5849411 0-2.8161883-1.55407-5.293553-8.256-5.293553zm7.52753 2.2339765c1.311247-.2913883 2.428235-.3885177 3.642353-.3885177 2.282541 0 5.147858.7284706 5.147858 4.1765647 0 4.128-4.03087 4.3222589-6.119153 4.3222589-1.068423 0-1.748329-.0485647-2.671058-.1456942zm0 10.0043294c1.116988-.1456941 2.37967-.2428235 3.690917-.2428235s3.108141.0485647 4.370259.8741647c1.554071 1.0204235 1.797459 2.5739294 1.797459 3.8366117 0 3.5937883-3.350965 4.8079059-6.167718 4.8079059-1.408376 0-2.4288-.0971294-3.690917-.3885176zm38.802635-12.6753882c-7.867482 0-11.364141 5.8763294-11.364141 12.1411764 0 3.9823059 1.408376 6.7990589 3.059576 8.595953 1.359812 1.5055059 3.933741 3.4966588 8.207436 3.4966588 3.933741 0 6.50767-1.6997647 8.013176-3.2538353 1.845459-1.9425882 3.350965-4.9050353 3.350965-8.8387765 0-6.7019294-4.22513-12.1411764-11.267012-12.1411764zm-.145694 2.1374117c1.068423 0 3.059576.1451294 4.710776 2.2334118 1.845459 2.3802353 2.136847 5.7306353 2.136847 7.7703529 0 2.1859765-.291388 4.5650824-1.796894 6.7990589-1.505506 2.2345411-3.448094 3.1567058-5.002164 3.1567058-1.6512 0-3.933742-.6313411-5.439248-3.7394823-.971294-2.0397177-1.262682-4.3222588-1.262682-6.2648471 0-2.6710588.534212-5.7306353 2.039718-7.7217882 1.602635-2.0882824 3.593788-2.2334118 4.613647-2.2334118zm34.820329-14.56997645c-.534212 1.35981177-2.088282 1.70032941-3.350964 1.89402353l-4.079436.63134118c-4.467953.68047059-8.935906 1.99115294-11.412706 8.35312944-1.408376 3.6423529-2.136847 8.5959529-2.136847 12.3354353 0 3.8851764 1.262683 13.4524235 11.267012 13.4524235 3.933741 0 6.507671-1.6997647 8.013177-3.2538353 1.845458-1.8940235 3.350964-4.8079059 3.350964-9.1301647 0-6.5076706-3.739482-11.8497882-10.441412-11.8497882-4.807905 0-7.33327 2.8167529-8.741647 5.3421176h-.097129c.388518-8.1588706 3.982306-10.29571764 8.644518-10.97562352l4.565082-.63134118c1.6512-.24282353 5.147859-.92272941 6.070588-6.16771765zm-9.275859 14.56997645c5.244989 0 6.361977 6.7984941 6.361977 9.8580706 0 2.1368471-.243388 4.9050353-1.796894 7.2361412-1.505506 2.2339765-3.448094 2.8653176-5.002165 2.8653176-1.6512 0-3.933741-.6313411-5.439247-3.7394823-1.116988-2.2825412-1.262682-4.8073412-1.262682-6.2648471 0-1.9425882.72847-9.9552 7.139011-9.9552zm11.645365 32.2464h11.461271v-1.7483294l-3.108141-.2428235-.8256-.7770353v-8.1103059c2.476235.4370824 3.981741.4370824 4.565082.4370824 3.690918 0 6.361976-1.2621177 8.256-3.1081412 1.747765-1.6997647 3.593788-4.8079059 3.593788-9.5186824 0-7.7703529-4.516518-11.3155764-9.275859-11.3155764-1.845459 0-3.934306.4370823-7.139011 2.8653176v-2.6710588h-1.845459l-5.682071 1.7483294v1.5055059h3.448094v28.1675294l-.777035.7770353-2.671059.2428235zm7.52753-29.7216c1.165552-.6799059 3.156705-1.5540706 5.050729-1.5540706 4.759341 0 6.993318 4.0794353 6.993318 8.7902118 0 5.2935529-2.768753 9.9072-8.450259 9.9072-.728471 0-1.894588-.0971294-3.593788-.8256zm33.309741 19.1344941h6.799059v-1.7483294h-2.574495l-.825035-1.0198588v-14.0837647c0-1.0198588-.048565-3.4966588-1.55407-5.0992941-1.699765-1.7968941-4.662212-1.8454588-5.7792-1.8454588-7.090448 0-9.712942 3.1081411-9.712942 5.6820705 0 1.165553.92273 1.2626824 1.505506 1.2626824h3.350965v-4.0794353c1.214118-.4370823 2.573929-.7279059 3.836612-.7279059 4.516517 0 4.273694 3.4960941 4.273694 5.3901177v1.5540706c-5.196424 1.2626823-7.52753 2.0397176-9.275859 2.7196235-2.282541.9227294-4.905035 2.4282353-4.905035 6.0705882 0 3.0595765 1.845459 6.3619765 6.216282 6.3619765 1.845459 0 4.225129-.5827765 7.964612-3.2538353zm-.679906-4.4679529c-3.108141 1.7974588-4.759341 2.1854118-6.022024 2.1854118-2.962447 0-3.885176-2.2339765-3.885176-4.0308706 0-2.6710588 1.845459-3.7394824 3.398965-4.467953 1.700329-.7770353 4.419952-1.6512 6.508235-2.2339764zm14.453082-6.3134118c.339953-.0485647 1.942588-.1936941 2.865318-.1936941 1.359812 0 5.196423.1451294 5.196423 4.4673883 0 3.6909176-2.865317 4.8079058-5.7792 4.8079058-1.165553 0-2.816753-.1936941-4.516517-1.0684235l-.679906-4.128h-2.331106v6.3134118c1.602071.4370823 4.273694 1.0198588 7.624659 1.0198588 4.128 0 10.150023-1.1655529 10.150023-7.0418824 0-4.4679529-3.642353-5.6335058-6.070588-5.8277647v-.0965647c3.011012-.6804706 5.002165-2.8658823 5.002165-5.4398117 0-5.4392471-5.487812-5.8277647-8.644518-5.8277647-1.311247 0-3.642353.0971294-7.090447 1.0198588v5.4878117h2.331106l.534212-3.4480941c1.456941-.6799059 2.865317-.9221647 4.079435-.9221647 1.456941 0 4.613647.387953 4.613647 4.176 0 4.0794353-3.302965 4.3708236-5.050729 4.3708236-.8256 0-1.554071-.0485648-2.233977-.1451295zm25.826259-13.0153411c-7.868047 0-11.364141 5.8763294-11.364141 12.1411764 0 3.9823059 1.408376 6.7990589 3.059576 8.595953 1.359812 1.5055059 3.933741 3.4966588 8.207436 3.4966588 3.933741 0 6.50767-1.6997647 8.013176-3.2538353 1.845459-1.9425882 3.350965-4.9050353 3.350965-8.8387765 0-6.7019294-4.22513-12.1411764-11.267012-12.1411764zm-.145694 2.1374117c1.068423 0 3.059576.1451294 4.710776 2.2334118 1.845459 2.3802353 2.136847 5.7306353 2.136847 7.7703529 0 2.1859765-.291388 4.5650824-1.796894 6.7990589-1.505506 2.2345411-3.448094 3.1567058-5.002164 3.1567058-1.6512 0-3.934306-.6313411-5.439247-3.7394823-.971295-2.0397177-1.262683-4.3222588-1.262683-6.2648471 0-2.6710588.534212-5.7306353 2.039718-7.7217882 1.602635-2.0882824 3.593788-2.2334118 4.613647-2.2334118zm12.446682-1.7003294v1.7488941l2.622494.2422589.8256.7770352v17.8232471l-.8256.7770353-2.622494.2428235v1.7483294h12.286871c1.990588 0 4.419388-.1942588 6.507106-1.6026353 2.185976-1.4569411 2.768753-3.4966588 2.768753-5.0507294 0-4.0794353-3.253836-5.4878117-5.924894-5.7306353v-.0971294c2.671058-.6799059 4.662211-2.7681882 4.662211-5.5849411 0-2.8161883-1.55407-5.293553-8.256-5.293553zm7.52753 2.2339765c1.311247-.2913883 2.428235-.3885177 3.642353-.3885177 2.282541 0 5.147858.7284706 5.147858 4.1765647 0 4.128-4.03087 4.3222589-6.119153 4.3222589-1.068423 0-1.748329-.0485647-2.671058-.1456942zm0 10.0043294c1.116988-.1456941 2.37967-.2428235 3.690353-.2428235 1.311811 0 3.108141.0485647 4.371388.8741647 1.55407 1.0204235 1.796894 2.5739294 1.796894 3.8366117 0 3.5937883-3.350965 4.8079059-6.168282 4.8079059-1.407812 0-2.427671-.0971294-3.690353-.3885176zm31.280188 11.1213176h6.799059v-1.7483294h-2.574494l-.8256-1.0198588v-14.0837647c0-1.0198588-.048-3.4966588-1.554071-5.0992941-1.6992-1.7968941-4.661647-1.8454588-5.778635-1.8454588-7.091012 0-9.712941 3.1081411-9.712941 5.6820705 0 1.165553.922729 1.2626824 1.505505 1.2626824h3.350965v-4.0794353c1.214118-.4370823 2.57393-.7279059 3.836047-.7279059 4.517083 0 4.274259 3.4960941 4.274259 5.3901177v1.5540706c-5.196424 1.2626823-7.527529 2.0397176-9.275859 2.7196235-2.282541.9227294-4.905035 2.4282353-4.905035 6.0705882 0 3.0595765 1.845459 6.3619765 6.216282 6.3619765 1.845459 0 4.22513-.5827765 7.964612-3.2538353zm-.679906-4.4679529c-3.108141 1.7974588-4.759341 2.1854118-6.022024 2.1854118-2.962447 0-3.885176-2.2339765-3.885176-4.0308706 0-2.6710588 1.844894-3.7394824 3.399529-4.467953 1.699765-.7770353 4.419389-1.6512 6.507671-2.2339764zm9.207529 4.4679529h10.6848v-1.7483294l-2.33167-.2428235-.825035-.7770353v-8.3045647h10.878494v8.3045647l-.8256.7770353-2.331106.2428235v1.7483294h10.684235v-1.7483294l-2.622494-.2428235-.8256-.7770353v-17.8232471l.8256-.7770352 2.622494-.2422589v-1.7488941h-10.684235v1.7488941l2.331106.2422589.8256.7770352v7.2852706h-10.878494v-7.2852706l.825035-.7770352 2.33167-.2422589v-1.7488941h-10.6848v1.7488941l2.623059.2422589.8256.7770352v17.8232471l-.8256.7770353-2.623059.2428235zm27.924706 0h10.684236v-1.7483294l-2.331106-.2428235-.8256-.7770353v-1.5540706l11.267011-12.0926117v13.6466823l-.8256.7770353-2.331105.2428235v1.7483294h10.684235v-1.7483294l-2.623059-.2428235-.825035-.7770353v-17.8232471l.825035-.7770352 2.623059-.2422589v-1.7488941h-10.684235v1.7488941l2.331105.2422589.8256.7770352v1.165553l-11.267011 12.0926118v-13.2581648l.8256-.7770352 2.331106-.2422589v-1.7488941h-10.684236v1.7488941l2.622494.2422589.8256.7770352v17.8232471l-.8256.7770353-2.622494.2428235zm28.342024 0h10.684235v-1.7483294l-2.331106-.2428235-.8256-.7770353v-1.5540706l11.267012-12.0926117v13.6466823l-.826165.7770353-2.330541.2428235v1.7483294h10.683671v-1.7483294l-2.62193-.2428235-.8256-.7770353v-17.8232471l.8256-.7770352 2.62193-.2422589v-1.7488941h-10.683671v1.7488941l2.330541.2422589.826165.7770352v1.165553l-11.267012 12.0926118v-13.2581648l.8256-.7770352 2.331106-.2422589v-1.7488941h-10.684235v1.7488941l2.622494.2422589.8256.7770352v17.8232471l-.8256.7770353-2.622494.2428235z" fill="#000"/><path d="m23.9156329 47.5723482c13.0650353 0 23.6566589-10.5921882 23.6566589-23.6572235 0-13.0644706-10.5916236-23.65609411-23.6566589-23.65609411s-23.65665878 10.59162351-23.65665878 23.65609411c0 13.0650353 10.59162348 23.6572235 23.65665878 23.6572235z" fill="#fff" stroke="#4a4a4a"/><g transform="translate(6.211765 9.438155)"><g fill="#b20838"><path d="m22.9811576 7.62906353.4037648.18804706c-.1174589-.10672941-.2552471-.1824-.4037648-.18804706"/><path d="m22.7409882 7.51160471c.0395294-.15642353.0847059-.22757647.234353-.25242353.2693647-.04574118.581647.04348235.7425882-.20329412.1310118-.19990588.1202824-.5466353.1519059-.77364706.0451765-.31792941-.0830118-.51783529.3196235-.53364706.0395294-.33035294-.120847-.62061176-.1586823-.92837647-.0208941-.16941176.0028235-.35858823.0016941-.53025882-.0005647-.23152941 0-.27896471.2377412-.29138824.034447-.10785882-.0649412-.25298823-.0762353-.35745882-.0141177-.12875294-.0073412-.24451765-.0395294-.36762353-.0604236-.23491765-.2778353-.36705882-.4884706-.4992-.2354824-.14512941-.4636236-.27952941-.7301647-.35689412-.2863059-.08131765-.5313883-.12762353-.7770353-.30155294-.2558118-.17844706-.5381647-.10447059-.8114824.0192-.1965176.08809412-.4122353.2496-.5776941.39642353-.4461176.39247059-.7211294.77985882-.8459294 1.35077647-.1259294.57543529-.0158118 1.14409412.1733647 1.65967059.1536.41788235.5822118.9029647.5200941 1.37562353l2.0786824.96903529c-.0203294-.1152.0180706-.26654117.0451764-.3749647"/><path d="m30.3554259 7.19779765c-.119153.05251764-.1982118.15134117-.3151059.20668235-.3094588.14682353-.5528471.3648-.7917176.62287059-.0886589.096-.1603765.21289412-.2337883.31284706-.2275765.3072-.6064941.61778823-.9317647.816-.1699765.10164706-.2908235.23604706-.4297412.3749647-.1665882.16658824-.336.26654118-.533647.38908236-.1270588.07905882-.2326588.19990589-.3540706.27727059-.119153.0756706-.3009882.1276235-.4376471.1959529-.3958588.2021647-.8899764.4438589-1.3231059.1541647-.2919529-.1953882-.3365647-.60649408-.5534117-.86456466-.1812706-.21515295-.5325177-.33712942-.6093177-.62795295-.0790588-.29985882-.0180706-.58729411-.1773176-.87698823-.0655059-.12028235-.1626353-.25468235-.2800941-.36028235l-.4037647-.18861177c-.0124236-.0005647-.0254118-.00338823-.0389647-.00282353-.0005647-.00508235 0-.01129412-.0011295-.01694117l-2.0165647-.93967059c-.0022588.01637647-.0033882.03275294-.0073411.04743529-.109553.01524706-.3472942-.04687059-.4195765.05477647-.0694588.09656471.0813176.37722353.0711529.50428235-.0124235.15924706-.0779294.22249412-.1677176.34672942-.0824471.11463529-.144.2304-.1976471.36254117-.2411294.59632941-.4630588 1.12432941-.4636235 1.77712941 0 .71209414.1999059 1.32931764.2755765 2.01317644.015247.1400471.0784941.2851765.1191529.4314353.0576.2066824.0705882.3924706.119153.6031059.0852705.3642353.2230588.7273412.3924705 1.0639059.2315295.4647529.5330824.8747294.7600942 1.3327059.0943058.1903059.3811764.8476235.6624.7459764.1270588-.0468705.2919529-.2524235.3919058-.3472941.1931295-.1818353.3602824-.3845647.5172706-.5946353.2750118-.3681882.3213177-.9357176.4427294-1.3733647.0943059-.3444706.234353-.7363764.3732706-1.0509176.1462589-.3297883.3444706-.4907294.6821647-.5754353.1524706-.0384.2309647-.0491294.3648.0299294.1078589.0649412.2072471.1665882.2959059.2569412.147953.1502117.3727059.3241412.5539765.4190117.0423529-.144.1609412-.1903058.2846118-.2614588.1101176-.0638117.2021647-.1502117.3139764-.207247.3049412-.1547295.8464941-.2546824 1.0644706-.5206589.0954353-.1163294.1344-.2337882.2558118-.3376941.1530353-.1332706.303247-.2733176.4670117-.3947294.2162824-.1598118.4342589-.2755765.6307765-.4720941.2518588-.2524235.5359059-.4737882.7804235-.72960001.1208471-.12649412.2642824-.21854118.3924706-.33430588.1174589-.10672942.1908706-.24338824.3269647-.3264.119153-.07397647.2253177-.1056.3179294-.22362353.0762353-.09769412.1061648-.27331765.2253177-.33091765v-1.49929412c-.1270588.03162353-.2716235.06437647-.3947294.11858824"/><path d="m34.4200659 6.48694588c-.2089412-.20498823-.4929883-.31510588-.7211294-.50315294-.2123294-.17505882-.4297412-.33712941-.6607059-.48451765-.2061177-.13101176-.4303059-.28178823-.6014118-.4608-.1163294-.12254117-.3049412-.46362353-.4540235-.5189647-.0835765.07171765-.1264941.20894117-.1773177.30042353-.0587294.10729412-.1163294.21402353-.1773176.32583529-.1406118.25468235-.2908235.50654118-.4342588.75952941-.1332706.23435294-.2456471.48112942-.4037647.69967059-.1857883.25807059-.3314824.46418824-.4749177.75049412-.2558117.51331765-.5573647.99952941-.8188235 1.50889412-.1214118.23887059-.2258824.52235294-.3636706.74145882-.0892235.14343529-.3896471.42352943-.3902118.58334113.5285647.1349648 1.0859295.3574589 1.5727059.5980236.263153.130447.5167059.2597647.7883294.3568941.2191059.0790588.5302589.1389176.7036236.2721882.0180706-.0807529-.0186353-.1502117.048-.1931294z"/><path d="m24.7122071 11.6569976c.1078588.1406118.1118117.3162353.1654588.4732236.0553412.1615059.1394823.3100235.1903059.4743529.0875294.2885647.1807058.5810824.3038117.8368941.1157647.2371765.2608941.4224.3772236.6533647.1044705.2083765.168847.4252236.2721882.6336.3072.0197647.6324706.0886589.9487059.1264942.3851294.0451764.7527529.1106823 1.1356235.1648941.7228235.1039059 1.4648471.3783529 2.1729882.6127059.6770824.2241882 1.3456942.4252235 2.010353.6912.2851765.1129411.5347765.2021647.7979294.3755294.2642823.1722353.3269647.4410353.4257882.7194353.1248.3523764.0502589.6714353.0395294 1.0277647-.0124235.4201411-.0417882.8284235-.0807529 1.2395294-.0192.216847-.0197647.4427294-.0395294.6522353-.0242824.2462117-.0338824.4783059-.0779294.7216941-.0920471.5003294-.0389647 1.0554353-.0389647 1.5681882v1.1051294c0 .3139765-.0948706.6302118-.0400941.9470118.0350117.2038588.303247.4252235.4636235.5624471.2416941.2055529.5765647.2298353.8391529.3535058.2851765.1321412.5110588.3371295.7809883.4749177.2337882.1208471.5330823.1829647.7578353.3060706.2354823.1281882.2885647.5963294.0011294.6708706-.2625883.0700235-.7183059.0225882-.9865412-.0090353-.3122824-.0378353-.6409412-.1135059-.9470118-.1502118-.1519059-.0180706-.3207529.0005647-.4749176.0011294-.1716706.0011294-.3009883-.0355764-.4732236-.0395294-.351247-.0073412-.7058823-.0412235-1.0650352-.0400941-.1931295.0005647-.2778353.0192-.2761412-.1965177.0005647-.1682823.0892235-.2772705.1473882-.4342588.2394353-.6426353-.053647-1.3338353-.1383529-1.9747764-.0282353-.2078118-.0096-.4235295-.0468706-.6307765-.0372706-.2117647-.0852706-.4252235-.1225412-.6398118-.0621176-.360847-.0626823-.7335529-.1072941-1.0960941-.0389647-.3190588-.0084706-.6624-.0084706-.9859765 0-.3376941-.0406588-.6663529-.0395294-.9950117 0-.1677177.0022588-.3365647 0-.5048471-.003953-.1903059-.1197177-.3088941-.2671059-.1468235-.1095529.120847-.0807529.2405647-.1360941.3749647-.0722824.1778823-.2320941.1236706-.3777882.0784941-.5816471-.1784471-1.1864471-.4252235-1.7449412-.6533647-.1197177-.0485647-.2665412-.1089882-.3936-.1276235-.0739765-.0107294-.2157177-.0446118-.2812236-.0333177-.0237176.0033883-.044047.0621177-.0722823.0739765-.0677647.0288-.1355294.0237176-.2027294.0400941-.3168.0700235-.6872471.1180235-1.0221177.1180235-.8442353 0-1.6816941.0389647-2.5298823.0389647h-.627953c-.2529882 0-.4308705-.0643764-.6736941-.120847-.3568941-.0813177-.744847-.0762353-1.0650353-.3038118-.2004706-.1423059-.2467764-.4348235-.3631059-.6420706-.1586823-.2800941-.3196235-.5246117-.4235294-.8284235-.0570353-.1665882-.1394823-.3388235-.2078117-.5037176-.0660706-.1586824-.0530824-.2761412-.0779294-.4421648-.0417883-.2778352-.1067295-.5539764-.1400471-.8289882-.0451765-.3591529-.0807529-.7081412-.1355294-1.0656-.0700235-.4438588-.1106824-.917647-.1106824-1.3699765 0-.4336941-.0666353-.9605647.1163294-1.3513411.1118118-.2416942.3681883-.4528942.5647059-.6251294.1840941-.1620706.4512-.3049412.7008-.2840471"/></g><path d="m10.6957553 18.0893365c-.0400941.1185882-1.62296471 9.5898353-1.62296471 9.5898353l1.19378821.0784941 1.6240941-7.4970353s1.1339295-.3557647 2.2384942-.3557647 2.136847.5923765 2.136847.5923765l1.8985412 7.2999529h1.1791059l-1.8595765-9.3520941 1.6737882-6.3540706-1.0661647-.7312941s-6.8431058 7.3609411-6.9227294 7.0057411c-.0784941-.3546352-.4732235-.2761411-.4732235-.2761411" fill="#231f20"/><path d="m27.6300424 18.0893365c.0400941.1185882 1.6229647 9.5898353 1.6229647 9.5898353l-1.1937883.0784941-1.6235294-7.4970353s-1.1344941-.3557647-2.2390588-.3557647-2.1357177.5923765-2.1357177.5923765l-1.8991058 7.2999529h-1.1796706l1.8601411-9.3520941-1.6845176-6.3540706 1.0768941-.7312941s6.8431059 7.3609411 6.9221647 7.0057411c.0784941-.3546352.4732236-.2761411.4732236-.2761411" fill="#b20838"/><g fill="#231f20"><path d="m17.5447906 5.92720941c-.013553-.02597647-.0067765-.08865882-.0186353-.12254117-.0124235-.03614118-.0293647-.07058824-.0474353-.10390589-.0440471-.08752941-.0847059-.17223529-.1135059-.26484706-.0570353-.18748235-.0784941-.38738823-.0705882-.58108235.0045176-.1157647.0327529-.22927059.0576-.34108235.0367059-.16489412.0649412-.336.1355294-.49072941.0536471-.11971765.1552941-.2202353.2145882-.33430589.048-.09204705.0604236-.21797647.1050353-.31849411.0598588-.13609412.1315765-.26089412.1886118-.39585883.0869647-.20498823.0858353-.63134117.0423529-.8549647-.0463059-.24225883-.1615059-.58164706-.2964706-.78607059-.1394823-.2106353-.3845647-.38625882-.5906823-.53364706-.1005177-.07228235-.1722353-.18352941-.2959059-.21402353-.1581176-.03783529-.3207529-.02145882-.4828235-.03783529-.3173647-.03444706-.6127059-.01807059-.9261177.0293647-.2846117.04235294-.5150117.17731765-.764047.28856471-.2366118.10672941-.5246118.12197647-.7414589.2789647-.1174588.08527059-.2236235.18070589-.332047.27614118-.0790588.06889412-.1824.18352941-.1626353.30042353.0073412.04687059.0553412.05929412.0937412.08978824.0519529.04122352.1095529.08018823.1586823.1248.0705883.06494117.1157647.0773647.0525177.16489411-.0502589.06889412-.128753.15077647-.1519059.23717647-.0208941.07905883-.0146824.21854118-.0022588.30155294.005647.04461177.0124235.07962353.0333176.11971765.0208941.03952941.0649412.0672.0835765.10842353.0367059.08188235.0096.14174118-.0062118.22249412-.0124235.06832941-.0231529.12762353-.0474353.19538823-.0208941.05929412-.0321882.11971765-.0491294.18127059-.0141176.05251765-.034447.10785883-.048.16545883-.0107294.04404705-.0609882.144-.053647.18409411.0067764.03896471.0779294.06042353.1163294.09035294.0451764.03275295.082447.07454118.1248.11181177.0355764.03331765.0864.07792941.1061647.12141176.0310588.06945883-.0096.16489412-.0084706.24.0011294.09487059-.0062118.20272942.0288.29308236.0530823.13778823.1276235.19538823.2140235.30945882.1349647.18014118.1129412.38964706.0914824.60197647-.0056471.05929412-.0096.13665882.034447.18127059.0412236.04122353.1050353.03218823.1620706.03218823.1270588 0 .2512941-.01581176.3755294-.01524705.1332706 0 .2354824-.00790589.3309177.09374117.0852706.09091765.1507764.21007059.1807059.32809412.0914823.36084706-.0293648.88263529.2620235 1.17007059.1767529.17505882.5059765.11689412.7307294.17167059.2704941.06550588.5195294.19595294.8001882.22023529.3456.02936471.5884236-.10051765.7403294-.39416471.1202824-.23152941.2377412-.66352941.0406589-.88715294z"/><path d="m12.0308894 15.0275576c-.0400941-.1152-.2908235-.0926117-.3936-.1044705-.3890823-.0412236-.7572706-.071153-1.1514353-.0717177-.3557647-.0011294-.70475292.0559059-1.05882351.0705882-.33712941.013553-.66861177.1089883-1.00461177.1056-.56470588-.0050823-1.12037647.071153-1.68734117.0705883-.51275294-.0011294-1.04470589.0886588-1.55068236.1761882-.3072.0542118-.5861647.1485177-.8832.2394353-.13835294.042353-.18804705.0576-.29138823.1406118-.0672.0547764-.13496471.1044706-.20329412.1581176-.16432941.1270588-.18070588.2597647-.21854118.4483765-.05308235.2620235-.192.5031529-.23265882.7708235-.08075294.5251765-.00734118 1.1192471-.00734118 1.6506353 0 .4512-.1061647.8719059-.1061647 1.3202824 0 .3173647-.07058824.6160941-.10785882.9283764-.048.3992471-.03331765.8120471-.03331765 1.2169412 0 .5449412.09543529 1.2158118-.03557647 1.7392941-.05477647.2168471-.15021177.4517647-.21232941.6686118-.04856471.1682824-.05421177.2095059.10672941.2484706.20498823.0502588.42409412.1389176.63585882.1699765.32075294.048.66748235.0005647.99049412.0073411.20329412.0045177.39755294.0344471.60705882.0350118.16602353 0 .31228236-.0355765.47661177-.0355765.1248.0005647.23491764.0581647.35463529.0299294.02654118-.0954353.07002353-.1366588.06889412-.2405647-.00112941-.1101176-.02767059-.2416941-.02767059-.360847 0-.3134118-.07115294-.6014118-.07058823-.9142588.00169411-.5387295.02597647-1.0915765-.03388236-1.6201412-.0672-.5867294-.00112941-1.1785412-.00112941-1.7726118 0-.3433412-.03783529-.687247-.03557647-1.0243765.00169412-.2603294-.01524706-.5133176.04178824-.7623529.47887058-.0615529 1.08254117-.0457412 1.5461647.0553412.66635294.1445647 1.35585882.1863529 2.03632941.1863529.78889415 0 1.56141175.0705883 2.35087055.0705883.5810824 0 1.1627295.034447 1.7483295.034447.8724705 0 1.7539764.0491294 2.4779294-.4941176.2501647-.1880471.4461176-.4037647.5929411-.6782118.0666353-.1242353.0355765-.2840471.0694589-.4161882.0412235-.167153.1152-.2902589.1146353-.4664471-.0022589-.3072.0011294-.6081882.0355764-.9086118.0248471-.2157176.071153-.4269176.1050353-.6443294.0406588-.2693647.1423059-.5296941.1778824-.7968.0259764-.1942588-.0818824-.2767059-.2541177-.3614117-.3337411-.1654589-.7792941-.3614118-1.1525647-.3885177-.4032-.0304941-.7798588.2405647-1.1712.3201883-.2699294.0547764-.5359059.1056-.8069647.1490823-.1654588.0265412-.3902117.0446118-.5347765.1327059"/><path d="m5.74768941 24.8757459c.01016471-.0175059.01976471-.0350118.02992941-.0530824.05364706.3196236.09656471.6499765.14569412.9707294.04235294.2772706.11350588.5590589.14174118.8470589.02823529.2846117.06268235.5957647.03614117.8820706-.00677647.0672-.02032941.1225411-.03218823.1874823-.0096.0491294-.00677647.0722824-.06155294.0931765-.07962353.0288-.1728.0169412-.25581177.0169412-.11745882 0-.23265882.0129882-.35011764.0096-.12931765-.0033883-.2592-.0276706-.38795295-.0440471-.10447058-.0141177-.20894117-.0005647-.31171764-.0208941-.09995294-.0197647-.21458824-.0288-.3168-.0276706-.11181177 0-.22588236.0028235-.33148236.0282353-.02032941.0045176-.04122352.0096-.06211764.0129882-.04291765.0062118-.09204706.0067765-.1344.0107294-.14795294.0141177-.29647059.0016941-.44272941 0-.1248-.0022588-.2496-.0107294-.37552942-.0107294-.07623529 0-.15134117-.0005647-.22644705-.0005647-.07284706.0005647-.14174118.0180706-.21458824.0214588-.16602353.0073412-.33543529-.0169411-.50089412-.0293647-.13665882-.0101647-.26823529.0112941-.4037647.0192-.21232942.0129883-.42861177-.0079059-.63924706-.0107294-.08131765-.0011294-.17788235.0180706-.24282353-.0288-.07171765-.0519529-.07058824-.1027765-.08075294-.1891765-.01298824-.1140705.07567059-.2433882.12197647-.341647.05985882-.1264941.15924706-.2095059.27388235-.2885647.18183529-.1281883.36367059-.2608941.57712941-.3320471.15642353-.0530823.31228236-.1050353.46757647-.1575529.20724706-.071153.40376471-.1620706.59971765-.2586353.22362353-.1118118.45967059-.2445177.6528-.4043294.07341176-.0621177.15134118-.1174588.22249412-.1818353.05647059-.0513883.0864-.1264941.10785882-.2004706.0474353-.1558588.04856471-.3218824.05251765-.4845177.00621176-.2309647-.00508235-.5302588.24621176-.6273882.21289412-.0813176.44272941-.0231529.66409412-.0412235.28122353-.0237177.63303529-.1016471.88997647.0683294"/><path d="m15.4897129 6.30940235c.4150589 0 .8069647-.07905882 1.2.06155294.3439059.12367059.7256471.18127059 1.0588236.31849412.5579294.2304 1.0475294.64602353 1.1220706 1.27849412.0417882.35802353.0547764.69571765 0 1.05825882-.0570353.37665883-.1982118.73016471-.3009883 1.09327055-.1948235.6900706-.4201412 1.367153-.6093176 2.048753-.0926118.3354353-.195953.6674823-.3088941.9888-.1078589.3100235-.1637647.6437647-.2817883.9526588-.226447.5912471-.2733176 1.2824471-.7137882 1.7647059-.4399059.4811294-1.1960471.1643294-1.7099294.0355765-.4783059-.119153-.9300706-.1507765-1.248-.5568-.1790118-.2292706-.4173177-.4873412-.5579294-.7403295-.2270118-.4094117-.0474353-.8820705.1236706-1.2779294.1699764-.3919058.4342588-.735247.6031058-1.1254588.1473883-.3393882.2044236-.7070118.3540706-1.0576941.1552941-.3625412.3326118-.7764706.3518118-1.17176471"/><path d="m10.8234353 13.30752c.5398588-.0502588 1.0927059-.0655059 1.6308706-.1338353.1022117-.3501176-.2721883-.8572235-.4444235-1.1395765-.2806589-.4602353-.4986353-.8967529-.8306824-1.3202823-.0971294-.1219765-.2264471-.2224941-.3094588-.3523765-.099953-.1552941-.1897412-.3405176-.2704941-.50597646-.2891295-.58334118-.503153-1.2101647-.76800004-1.80649412-.34221177-.77025882-.65449412-1.52018823-.95491765-2.30343529-.09148235-.23661177-.22757647-.42635294-.33035294-.65336471-.22870588-.50767058-.40715294-1.02324706-.60141176-1.53769411-.19651765-.51727059-.50145883-.9978353-.71096471-1.52752942-.2112-.53138823-.31623529-1.09214117-.3936-1.6704-.27275294.05025883-.61157647.31397648-.86456471.44837648-.36310588.19425882-.68894117.39868235-1.02324705.63811764-.50258824.36197647-.92724706.81317647-1.37901177 1.22032941-.61214118.55228236-1.16611765 1.20282353-1.75397647 1.78785883-.24.23887059-.42578824.5376-.63698824.80075294-.38004705.47435294-.80922352.91990588-.95378823 1.51115294-.04009412.1632-.14738824.30945882-.18183529.46701176.60988235.07171765 1.18701176.15868236 1.76131764.42748236.37665883.17618823.73355294.32188235 1.10625883.47774117.18804705.07792942.22870588.20724706.36084705.36536471.22362353.26823529.56131765.48734118.80414118.76178823.44498824.50202353.88545882 1.09157644 1.25985882 1.66249414.38851765.5940706.82221177 1.1186823 1.16894118 1.733647.2970353.5251765.53364706 1.0842353.79284706 1.6065883.18748235.0694588.39529412-.1615059.57091765-.2230588.21232941-.0751059.39755294-.1722353.59915294-.2597648.39698823-.1705411.90127059-.1970823 1.31463529-.3055058.33543532-.0886589.68385882-.1366589 1.03792942-.1694118" mask="url(#a)"/><path d="m16.4467765 6.86857412c-.192-.12705883-.4308706-.13552941-.6561883-.11294118-.2541176.02597647-.5104941.12988235-.7612235.18522353-.3450353.07397647-.6940235.16941177-1.0339765.26484706-.2942117.08244706-.629647.14795294-.9024.29195294-.2044235.10842353-.3376941.21007059-.572047.25807059-.2445177.05082353-.5500236.14569412-.7968.13891765-.0892236-.00225883-.2061177-.05251765-.2987294-.06550589-.2800942-.0389647-.5613177-.07849411-.8419765-.11858823-.85327059-.12254118-1.71218824-.18691765-2.56828236-.28517647-.61948235-.07115294-1.27115294-.19538824-1.89402353-.192-.21741176.00112941-.4416.01807059-.65788235-.00734118-.11237647-.01298823-.21289412-.04122353-.3264-.02089412.09430588.15077647.25863529.21628236.39924706.32244706.35632941.2688.82447059.37270588 1.24574117.51218824.59858824.19821176 1.18644706.46023529 1.73025883.7781647.47378823.27670589.8549647.73750589 1.35303529.97185883.17957649.08470588.39134119.10955294.57769409.15190588.2467765.05477647.4416-.01072941.6996706-.03501177.4675765-.04517647.9441883-.03952941 1.4145883-.06381176.5867294-.02936471 1.1661176-.08188235 1.7517176-.12988235.7459765-.05872941 1.4682353-.0282353 2.2108235-.02597647"/></g></g></g></svg>