<?xml version="1.0" encoding="UTF-8"?>
<svg width="170px" height="48px" viewBox="0 0 170 48" version="1.1" xmlns="http://www.w3.org/2000/svg" xmlns:xlink="http://www.w3.org/1999/xlink">
    <!-- Generator: Sketch 64 (93537) - https://sketch.com -->
    <title>VM_LOGO</title>
    <desc>Created with Sketch.</desc>
    <g id="Symbols" stroke="none" stroke-width="1" fill="none" fill-rule="evenodd">
        <g id="footer" transform="translate(-875.000000, -514.000000)" fill="#FFFFFF">
            <g id="футер_2">
                <g id="низ" transform="translate(0.000000, 429.000000)">
                    <g id="Group" transform="translate(875.000000, 85.000000)">
                        <g id="VM_LOGO">
                            <path d="M78.3621065,19 L85.1085914,23.1803372 L85.1085914,30.4648853 L75.2165062,30.4648853 L75.2165062,25.2498111 L70.4153268,25.2498111 L70.4153268,40.8536441 L75.2165062,40.8536441 L75.2165062,34.4382751 L85.1085914,34.4382751 L85.1085914,42.923118 L78.3621065,47.1034552 L67.2697266,47.1034552 L60.5232417,42.923118 L60.5232417,23.1803372 L67.2697266,19 L78.3621065,19 Z M51.2253912,19 L57.9718761,23.1803372 L57.9718761,42.8817285 L51.2253912,47.0620658 L40.1330113,47.0620658 L33.3865264,42.8817285 L33.3865264,23.1803372 L40.1330113,19 L51.2253912,19 Z M12.1685064,19.4138948 C12.1685064,19.4138948 15.2727172,30.3407168 15.5624436,31.2926748 C15.8107804,30.2993274 18.7080438,19.4138948 18.7080438,19.4138948 L18.7080438,19.4138948 L30.8765502,19.4138948 L30.8765502,46.6895605 L20.9844651,46.6895605 L20.9844651,34.0657698 C19.8255597,38.5772229 17.6733069,46.6895605 17.6733069,46.6895605 L17.6733069,46.6895605 L13.2032433,46.6895605 C13.2032433,46.6895605 11.09238,38.5358334 9.89208513,34.0657698 L9.89208513,34.0657698 L9.89208513,46.6895605 L2.0783375e-13,46.6895605 L2.0783375e-13,19.4138948 Z M97.3864842,19.4138948 L97.3864842,29.223201 C98.7937265,26.8226113 103.139622,19.4138948 103.139622,19.4138948 L103.139622,19.4138948 L113.859496,19.4138948 C113.859496,19.4138948 105.66438,31.2098959 105.250485,31.7893486 C105.66438,32.4101907 114.645896,46.6895605 114.645896,46.6895605 L114.645896,46.6895605 L103.594906,46.6895605 C103.594906,46.6895605 98.7937265,39.0738966 97.3450948,36.7974753 L97.3450948,36.7974753 L97.3450948,46.6895605 L87.4530096,46.6895605 L87.4530096,19.4138948 L97.3864842,19.4138948 Z M133.711664,19.4138948 L140.002864,23.0147793 L140.002864,30.5476642 C140.002864,30.5476642 137.271159,32.1204644 136.070864,32.782696 C137.353938,33.4449277 140.789264,35.1418962 140.789264,35.1418962 L140.789264,35.1418962 L140.789264,42.6333917 L134.00139,46.6895605 L116.162525,46.6895605 L116.162525,19.4138948 L133.711664,19.4138948 Z M162.628126,19.4138948 L169.747117,46.6895605 L159.441137,46.6895605 C159.441137,46.6895605 158.654737,42.6333917 158.530568,41.8469916 L158.530568,41.8469916 L152.570483,41.8469916 C152.454593,42.580965 151.869989,46.1632703 151.792557,46.6376489 L151.784083,46.6895605 L141.478103,46.6895605 L147.562357,19.4138948 L162.628126,19.4138948 Z M48.0797909,25.2498111 L43.2786115,25.2498111 L43.2786115,40.8536441 L48.0797909,40.8536441 L48.0797909,25.2498111 Z M130.897179,36.0524647 L126.096,36.0524647 L126.096,40.6053073 L130.897179,40.6053073 L130.897179,36.0524647 Z M155.509136,25.5395375 C155.302189,26.367327 153.729389,34.603833 153.563831,35.7627384 L153.563831,35.7627384 L157.288884,35.7627384 C157.081936,34.603833 155.633305,26.367327 155.509136,25.5395375 Z M130.897179,25.498148 L126.096,25.498148 L126.096,29.9682115 L130.897179,29.9682115 L130.897179,25.498148 Z" id="Combined-Shape"></path>
                            <path d="M29.8093022,0.221482978 L29.8093022,6.54520387 L27.2356949,8.12613409 L29.8093022,9.70706431 L29.8093022,16.0307852 L14,16.0307852 L14,0.221482978 L29.8093022,0.221482978 Z M100.072868,0.221482978 L100.072868,11.4460876 L90.9550538,11.4460876 L90.9550538,16.0307852 L86.0201546,16.0307852 L86.0201546,0.221482978 L100.072868,0.221482978 Z M137.786389,0.221482978 L137.786389,4.27920388 L137.839534,4.27920388 L137.839534,16.0307852 L132.259287,16.0307852 L132.259287,11.3406922 L130.611785,11.3406922 L127.369927,16.0307852 L121.151937,16.0307852 L124.925247,11.0245062 L121.89597,11.0245062 L121.89597,0.221482978 L137.786389,0.221482978 Z M156.28372,0.221482978 L156.28372,16.0307852 L150.703473,16.0307852 L150.703473,11.3406922 L149.055971,11.3406922 L145.814113,16.0307852 L139.596123,16.0307852 L143.369433,11.0245062 L140.340156,11.0245062 L140.340156,0.221482978 L156.28372,0.221482978 Z M47.487208,8.70414851e-14 L47.487208,3.75404835 L38.1354025,3.75404835 L38.1354025,6.02762693 L42.8113052,6.02762693 L42.8113052,9.78167529 L38.1354025,9.78167529 L38.1354025,12.1081278 L47.487208,12.1081278 L47.487208,15.8093022 L32.5562003,15.8093022 L32.5562003,8.70414851e-14 L47.487208,8.70414851e-14 Z M54.7955587,8.70414851e-14 L54.7955587,6.60924006 L59.5013377,6.60924006 L59.5013377,8.70414851e-14 L65.0530993,8.70414851e-14 L65.0530993,15.8093022 L59.5013377,15.8093022 L59.5013377,10.627658 L49.2437971,10.627658 L49.2437971,8.70414851e-14 L54.7955587,8.70414851e-14 Z M82.6189907,8.70414851e-14 L82.6189907,3.75404835 L73.2671852,3.75404835 L73.2671852,6.02762693 L77.9430879,6.02762693 L77.9430879,9.78167529 L73.2671852,9.78167529 L73.2671852,12.1081278 L82.6189907,12.1081278 L82.6189907,15.8093022 L67.687983,15.8093022 L67.687983,8.70414851e-14 L82.6189907,8.70414851e-14 Z M108.334639,8.70414851e-14 L108.334639,5.81613125 L113.114195,5.81613125 L113.114195,8.70414851e-14 L118.629068,8.70414851e-14 L118.629068,15.8093022 L113.114195,15.8093022 L113.114195,9.88742313 L108.334639,9.88742313 L108.334639,15.8093022 L102.819766,15.8093022 L102.819766,8.70414851e-14 L108.334639,8.70414851e-14 Z M23.8808139,9.88272322 L20.2029554,9.88272322 L20.2029554,12.5176069 L25.4178294,12.5176069 L25.4178294,10.9366767 L23.8808139,9.88272322 Z M95.6813948,3.73466125 L91.289922,3.73466125 L91.289922,7.24783952 L95.6813948,7.24783952 L95.6813948,3.73466125 Z M132.569767,3.73466125 L128.178294,3.73466125 L128.178294,7.24783952 L132.569767,7.24783952 L132.569767,3.73466125 Z M151.013953,3.73466125 L146.62248,3.73466125 L146.62248,7.24783952 L151.013953,7.24783952 L151.013953,3.73466125 Z M25.4178294,3.78256823 L20.148062,3.78256823 L20.148062,6.36954495 L23.8808139,6.36954495 L25.4178294,5.31559147 L25.4178294,3.78256823 Z" id="Combined-Shape"></path>
                        </g>
                    </g>
                </g>
            </g>
        </g>
    </g>
</svg>