<?xml version="1.0" encoding="UTF-8"?>
<svg width="16px" height="16px" viewBox="0 0 16 16" version="1.1" xmlns="http://www.w3.org/2000/svg" xmlns:xlink="http://www.w3.org/1999/xlink">
    <g id="Page-1" stroke="none" stroke-width="1" fill="none" fill-rule="evenodd">
        <g id="main-page_1" transform="translate(-1656.000000, -4096.000000)" fill="#FFFFFF">
            <g id="колонка" transform="translate(1368.000000, 592.000000)">
                <g id="спецпроект-copy" transform="translate(0.000000, 3288.000000)">
                    <g id="Group-3" transform="translate(288.000000, 212.000000)">
                        <path d="M11,8 C11.5522847,8 12,8.44771525 12,9 L12,19 C12,19.5128358 11.6139598,19.9355072 11.1166211,19.9932723 L11,20 L1,20 C0.44771525,20 -1.33226763e-15,19.5522847 -1.33226763e-15,19 L8.8817842e-16,9 C8.8817842e-16,8.44771525 0.44771525,8 1,8 L11,8 Z M10,10 L2,10 L1.999,18 L10,18 L10,10 Z M15,4 C15.5522847,4 16,4.44771525 16,5 L16,15 C16,15.5128358 15.6139598,15.9355072 15.1166211,15.9932723 L15,16 L13,16 L13,14 L14,14 L14,6 L6,6 L6,7 L4,7 L4,5 C4,4.44771525 4.44771525,4 5,4 L15,4 Z" id="3"></path>
                    </g>
                </g>
            </g>
        </g>
    </g>
</svg>